<svg width="184" height="70" xmlns="http://www.w3.org/2000/svg" xmlns:xlink="http://www.w3.org/1999/xlink"><defs><path id="a" d="M.473.535h7.382v7.488H.473z"/><path id="c" d="M.93 0h23v23h-23z"/></defs><g fill="none" fill-rule="evenodd"><g fill="#FFF" fill-rule="nonzero"><path d="M0 .992h6.943v30.58H25.07v6.171H0zM30.47.992h23.803v6.116h-16.86v8.65H49.81v6.172H37.413v9.587H55.54v6.226H30.47zM67.365.992l1.815 2.811 5.866 9.2.036-.058 3.616 5.6-.015.024 1.665 2.53L91.009 37.61l.143-.093.149.225h-8.376L74.44 24.354l-8.375 13.39h-7.549l12.232-19.01L59.012.992h8.353zM77.91 8.343L82.43.992h7.548l-8.387 13.05-3.68-5.699zM95.764.992h6.942v36.752h-6.942zM142.764 31.021c-.55.845-1.313 1.708-2.287 2.59-.973.882-2.12 1.699-3.443 2.452a21.106 21.106 0 0 1-4.353 1.846c-1.58.477-3.251.716-5.014.716-2.755 0-5.272-.477-7.549-1.432-2.277-.956-4.243-2.287-5.896-3.995-1.653-1.708-2.938-3.72-3.857-6.034-.918-2.314-1.377-4.848-1.377-7.604 0-2.681.459-5.197 1.377-7.548.919-2.351 2.213-4.408 3.885-6.171 1.671-1.764 3.664-3.16 5.978-4.188C122.542.624 125.095.11 127.888.11c1.799 0 3.452.193 4.958.579 1.506.385 2.874.909 4.105 1.57a15.329 15.329 0 0 1 3.279 2.342c.955.9 1.8 1.864 2.534 2.893l-4.904 4.353c-1.175-1.69-2.544-3.05-4.105-4.078-1.56-1.028-3.517-1.543-5.868-1.543-1.8 0-3.416.358-4.849 1.075a11.451 11.451 0 0 0-3.664 2.865c-1.01 1.194-1.781 2.59-2.314 4.188a15.838 15.838 0 0 0-.799 5.041c0 1.763.266 3.416.799 4.96.533 1.542 1.295 2.883 2.287 4.021a10.937 10.937 0 0 0 3.554 2.7c1.377.662 2.929.992 4.656.992 1.579 0 2.929-.183 4.05-.55 1.12-.368 2.075-.827 2.865-1.378.79-.551 1.45-1.13 1.983-1.736.533-.606 1.02-1.13 1.46-1.57l4.85 4.187zM164.299 38.735c-2.682 0-5.18-.505-7.494-1.515a19.071 19.071 0 0 1-6.06-4.16c-1.727-1.763-3.086-3.82-4.078-6.171-.992-2.351-1.488-4.867-1.488-7.549 0-2.681.496-5.198 1.488-7.549.992-2.35 2.341-4.398 4.05-6.143 1.708-1.745 3.728-3.123 6.06-4.133C159.11.505 161.618 0 164.3 0c2.681 0 5.18.505 7.493 1.515 2.315 1.01 4.335 2.388 6.061 4.133 1.727 1.745 3.086 3.792 4.078 6.143.992 2.351 1.487 4.868 1.487 7.55 0 2.68-.495 5.197-1.487 7.548-.992 2.35-2.351 4.408-4.078 6.171a19.071 19.071 0 0 1-6.06 4.16c-2.315 1.01-4.813 1.515-7.494 1.515zm0-6.557c1.8 0 3.434-.349 4.904-1.046a11.256 11.256 0 0 0 3.746-2.838c1.029-1.194 1.819-2.58 2.37-4.16.55-1.58.826-3.233.826-4.96 0-1.762-.275-3.425-.826-4.986-.551-1.56-1.341-2.93-2.37-4.105a11.108 11.108 0 0 0-3.746-2.782c-1.47-.68-3.104-1.02-4.904-1.02-1.837 0-3.48.34-4.932 1.02a11.183 11.183 0 0 0-3.719 2.782c-1.029 1.176-1.818 2.544-2.37 4.105-.55 1.561-.826 3.224-.826 4.987 0 1.726.276 3.38.827 4.959.55 1.58 1.34 2.966 2.369 4.16a11.336 11.336 0 0 0 3.72 2.837c1.45.698 3.094 1.047 4.93 1.047z"/></g><g transform="translate(24 55.023)"><mask id="b" fill="#fff"><use xlink:href="#a"/></mask><path d="M7.855 2.044c0-.468-.198-.836-.593-1.105-.396-.27-.909-.404-1.539-.404H2.238l-.082.348c.11.007.231.021.364.042.132.021.257.053.375.095.08.032.136.078.165.138.03.06.045.126.045.2a.772.772 0 0 1-.009.111 1.308 1.308 0 0 1-.019.106L1.758 7.03a.831.831 0 0 1-.14.325.633.633 0 0 1-.301.214 1.68 1.68 0 0 1-.37.068c-.17.018-.3.03-.392.037l-.082.348h3.363l.083-.348a4.565 4.565 0 0 1-.45-.037 1.394 1.394 0 0 1-.334-.068c-.088-.035-.147-.083-.177-.143a.458.458 0 0 1-.044-.206.896.896 0 0 1 .022-.19l.559-2.311h.956c.439 0 .859-.06 1.26-.177A3.597 3.597 0 0 0 6.8 4.018c.31-.222.563-.5.76-.834.197-.334.295-.714.295-1.14m-1.352.108c0 .204-.03.424-.093.658-.063.234-.17.455-.32.663a1.81 1.81 0 0 1-.757.61c-.309.136-.677.204-1.104.204h-.624L4.404.936h.718c.262 0 .479.033.652.098.173.065.315.154.426.267.11.116.188.246.235.39a1.5 1.5 0 0 1 .069.46" fill="#111B30" mask="url(#b)"/></g><path d="M36.602 59.388c0-.664-.165-1.201-.494-1.61-.33-.41-.786-.615-1.369-.615-.422 0-.814.101-1.176.303a2.874 2.874 0 0 0-.912.795 4.07 4.07 0 0 0-.58 1.144 4.435 4.435 0 0 0-.216 1.405c0 .683.17 1.227.51 1.63.338.405.78.607 1.323.607.468 0 .88-.105 1.236-.315.355-.21.659-.488.911-.835.249-.336.439-.727.57-1.172.131-.446.197-.891.197-1.337m-1.055-.166c0 .408-.036.806-.109 1.194a4.546 4.546 0 0 1-.312 1.033 2.252 2.252 0 0 1-.529.762c-.217.2-.466.3-.747.3a.768.768 0 0 1-.706-.394c-.156-.263-.234-.65-.234-1.162 0-.322.03-.673.09-1.054s.154-.727.283-1.039c.167-.411.367-.708.598-.89.232-.183.478-.274.74-.274.299 0 .528.127.687.38.16.255.239.636.239 1.144M44.87 57.432a.528.528 0 0 0-.47-.27.607.607 0 0 0-.405.17c-.128.114-.192.278-.192.493 0 .19.028.336.083.44.056.103.118.202.185.297.068.09.13.197.185.32.056.122.084.297.084.524a3.672 3.672 0 0 1-.644 2.106c-.179.261-.39.472-.63.635-.242.162-.478.243-.708.243a1.97 1.97 0 0 1-.273-.02.667.667 0 0 1-.274-.104.625.625 0 0 1-.226-.267 1.135 1.135 0 0 1-.088-.492 8.035 8.035 0 0 1 .112-.725l.715-3.45-.061-.084-.883.068-.896 4.298c-.193.25-.406.44-.64.57-.233.13-.456.195-.669.195-.24 0-.41-.073-.512-.218-.101-.145-.152-.36-.152-.643 0-.072.01-.181.03-.329.02-.147.046-.29.076-.43l.468-2.09a3.197 3.197 0 0 0 .081-.628c0-.26-.063-.462-.19-.603-.126-.142-.324-.213-.593-.213-.122 0-.283.034-.483.103-.2.068-.432.169-.695.302l-.076.364c.064-.02.154-.045.269-.077.114-.031.209-.047.283-.047.193 0 .32.035.383.105.062.07.094.21.094.422 0 .09-.01.206-.028.345a4.67 4.67 0 0 1-.09.465l-.43 1.79c-.017.079-.033.173-.048.282a2.085 2.085 0 0 0 .038.813c.04.172.108.326.203.462.101.143.236.26.403.348.167.089.379.133.636.133.212 0 .387-.032.524-.096s.288-.157.454-.277c.165-.121.3-.238.402-.352l.338-.368c.09.344.27.614.54.81.268.196.56.295.878.295.436 0 .84-.135 1.211-.402.372-.269.705-.648.999-1.139a5.88 5.88 0 0 0 .623-1.534 6.93 6.93 0 0 0 .228-1.762c0-.34-.057-.599-.17-.778M50.313 58.344c0-.345-.129-.628-.386-.85-.256-.22-.65-.331-1.182-.331-.48 0-.918.108-1.315.323-.397.216-.732.5-1.005.851-.28.36-.494.756-.64 1.189a4.252 4.252 0 0 0-.219 1.365c0 .688.173 1.22.518 1.594.346.374.845.562 1.498.562.477 0 .936-.139 1.38-.414a3.515 3.515 0 0 0 1.107-1.106l-.316-.238c-.273.374-.551.656-.833.845-.283.189-.609.283-.978.283-.417 0-.733-.158-.95-.473-.216-.316-.323-.772-.323-1.369.424-.053.812-.119 1.163-.198.35-.08.697-.184 1.04-.313.47-.17.827-.4 1.072-.687a1.54 1.54 0 0 0 .369-1.033m-1.055.01c0 .359-.076.67-.228.93a1.709 1.709 0 0 1-.696.642c-.218.116-.492.21-.823.28-.33.072-.627.128-.89.166.102-.762.343-1.398.724-1.908.381-.51.797-.766 1.248-.766.079 0 .156.006.23.017.076.012.148.04.215.087a.465.465 0 0 1 .158.195.844.844 0 0 1 .062.356M55.002 57.65a.772.772 0 0 0-.177-.284.645.645 0 0 0-.276-.157 1.179 1.179 0 0 0-1.033.192c-.223.16-.55.44-.98.84h-.032c0-.338-.062-.591-.185-.76-.123-.17-.33-.254-.618-.254a1.97 1.97 0 0 0-.559.099 5.398 5.398 0 0 0-.748.303l-.081.373c.068-.02.164-.044.287-.073.123-.03.224-.044.303-.044.206 0 .343.037.412.111.069.074.103.22.103.437 0 .09-.017.228-.051.414-.035.187-.061.327-.08.42l-.79 3.78h1.012l.874-4.176a4.36 4.36 0 0 1 .57-.59c.179-.147.338-.258.479-.332.14-.074.26-.123.36-.148.1-.026.17-.038.214-.038-.057.147-.114.296-.168.445a1.2 1.2 0 0 0-.081.405c0 .129.049.245.146.35.098.105.244.157.44.157a.562.562 0 0 0 .333-.084.84.84 0 0 0 .214-.242 1.01 1.01 0 0 0 .125-.324c.03-.13.044-.249.044-.358 0-.202-.02-.356-.057-.463M59.805 58.344c0-.345-.129-.628-.385-.85-.257-.22-.651-.331-1.183-.331-.48 0-.918.108-1.315.323-.397.216-.732.5-1.005.851a3.98 3.98 0 0 0-.64 1.189 4.252 4.252 0 0 0-.218 1.365c0 .688.172 1.22.517 1.594.346.374.845.562 1.498.562.477 0 .936-.139 1.38-.414a3.51 3.51 0 0 0 1.107-1.106l-.316-.238c-.273.374-.551.656-.833.845-.283.189-.608.283-.978.283-.417 0-.733-.158-.95-.473-.216-.316-.323-.772-.323-1.369.424-.053.812-.119 1.163-.198.35-.08.697-.184 1.04-.313.47-.17.827-.4 1.072-.687a1.54 1.54 0 0 0 .369-1.033m-1.055.01c0 .359-.076.67-.228.93a1.708 1.708 0 0 1-.696.642c-.218.116-.492.21-.823.28-.33.072-.627.128-.89.166.102-.762.343-1.398.725-1.908.38-.51.797-.766 1.247-.766.08 0 .156.006.231.017.075.012.147.04.214.087a.465.465 0 0 1 .158.195.849.849 0 0 1 .062.356M66.133 54.57l-.056-.082-2.253.12-.078.331c.126.015.267.027.423.038.156.011.278.033.367.065a.469.469 0 0 1 .225.152c.054.07.08.169.08.3 0 .064-.004.124-.013.178-.009.054-.025.13-.047.228l-.435 1.847a2.518 2.518 0 0 0-.623-.24 3.042 3.042 0 0 0-.763-.097c-.426 0-.835.098-1.227.296a3.283 3.283 0 0 0-1.004.775c-.286.33-.511.706-.676 1.13a3.605 3.605 0 0 0-.248 1.321c0 .652.153 1.168.458 1.547.306.378.727.568 1.264.568.22 0 .403-.03.553-.087.15-.059.314-.142.492-.25a2.9 2.9 0 0 0 .406-.291l.317-.27h.039c0 .287.078.498.237.634.157.136.37.204.638.204.174 0 .364-.027.568-.082.204-.054.463-.15.775-.288l.083-.347c-.07.025-.17.049-.3.07a1.98 1.98 0 0 1-.3.033c-.212 0-.362-.037-.451-.111-.09-.074-.134-.215-.134-.42 0-.08.016-.197.048-.351.031-.154.062-.29.092-.41l1.543-6.511zm-2.11 4.052l-.702 3.055c-.292.309-.557.525-.796.649a1.449 1.449 0 0 1-.662.186c-.214 0-.386-.04-.516-.121a.813.813 0 0 1-.3-.33 1.646 1.646 0 0 1-.149-.49 4.646 4.646 0 0 1 .128-1.835c.11-.408.259-.757.444-1.046.192-.301.415-.541.669-.722.253-.18.523-.27.808-.27.185 0 .345.03.48.093a.998.998 0 0 1 .513.513c.048.103.076.209.083.318zM73.516 59.48c0-.633-.158-1.137-.474-1.512-.315-.374-.749-.562-1.3-.562-.235 0-.477.055-.726.166-.248.11-.536.31-.862.599h-.022l.82-3.602-.053-.08-2.005.119-.076.33c.12.015.237.028.352.038a.97.97 0 0 1 .288.066c.08.036.14.09.184.16.044.07.065.17.065.3a.888.888 0 0 1-.019.183l-.046.214-1.4 6.144c.09.144.192.275.304.393.113.118.254.223.424.317.166.09.368.162.605.215.238.052.512.079.823.079a2.57 2.57 0 0 0 1.173-.28c.37-.186.7-.443.994-.768.286-.319.516-.698.69-1.137.174-.44.26-.9.26-1.382m-1.054-.225c0 .415-.05.82-.149 1.217-.1.396-.25.755-.453 1.076-.184.295-.404.53-.66.703-.256.174-.529.26-.82.26-.155 0-.296-.022-.425-.067a1.106 1.106 0 0 1-.558-.431.67.67 0 0 1-.1-.247l.734-3.323c.085-.075.178-.16.279-.255a2.037 2.037 0 0 1 .666-.423.989.989 0 0 1 .365-.067c.217 0 .4.04.547.123a.92.92 0 0 1 .347.336c.081.135.14.302.174.502.036.2.053.399.053.596M76.92 63.384c-.165.35-.35.635-.557.857a1.86 1.86 0 0 1-.633.452c-.23.097-.448.145-.655.145h-.13a36.81 36.81 0 0 1-.13-.28 2.067 2.067 0 0 0-.18-.317 1.025 1.025 0 0 0-.228-.239.543.543 0 0 0-.342-.109c-.178 0-.314.057-.408.171a.603.603 0 0 0-.141.395c0 .086.018.173.054.26a.539.539 0 0 0 .212.233c.105.073.248.13.429.172.18.041.425.062.733.062.446 0 .842-.06 1.19-.182.347-.121.671-.318.972-.592.286-.26.536-.6.75-1.023.213-.422.389-.931.527-1.526l.933-4.067-.065-.077-.937.062-.898 3.884c-.221.218-.458.39-.71.514-.252.125-.511.187-.776.187-.228 0-.401-.067-.52-.202-.117-.135-.176-.319-.176-.55 0-.066.012-.162.038-.289.025-.126.056-.262.092-.408l.493-1.895a2.6 2.6 0 0 0 .087-.577c0-.249-.07-.436-.21-.56-.139-.125-.354-.187-.643-.187-.13 0-.304.031-.519.094a6.545 6.545 0 0 0-.747.277l-.081.335c.068-.018.164-.042.287-.07.123-.03.224-.044.304-.044.206 0 .343.032.41.096.066.064.1.193.1.387 0 .107-.011.219-.033.335a6.838 6.838 0 0 1-.092.407l-.423 1.62a5.165 5.165 0 0 0-.102.51 2.363 2.363 0 0 0-.022.295c0 .312.101.564.304.756.203.192.479.288.826.288.384 0 .727-.076 1.027-.228.301-.153.618-.362.951-.629h.033c-.098.488-.23.907-.394 1.257" fill="#111B30"/><g transform="translate(78.063 47)"><mask id="d" fill="#fff"><use xlink:href="#c"/></mask><path d="M21.82 11.77c0-.054-.003-.108-.004-.162-.004-.142-.007-.284-.013-.427a8.443 8.443 0 0 0-.051-.677 10.873 10.873 0 0 0-.284-1.613 10.619 10.619 0 0 0-.665-1.883 9.33 9.33 0 0 0-.736-1.306 8.08 8.08 0 0 0-1.006-1.22 6.941 6.941 0 0 0-.923-.773 5.897 5.897 0 0 0-1.531-.77 5.283 5.283 0 0 0-2.48-.197c-.35.056-.691.147-1.024.273-.507.19-.98.45-1.423.771-.403.293-.77.629-1.108 1.003a8.294 8.294 0 0 0-.714.914 9.612 9.612 0 0 0-.957 1.819c-.271.678-.469 1.38-.602 2.102a11.762 11.762 0 0 0-.189 1.914c-.001.277-.003.552.012.828a11.772 11.772 0 0 0 .186 1.591c.09.479.209.95.36 1.41.205.631.466 1.235.787 1.81.387.691.85 1.32 1.406 1.872.492.49 1.038.898 1.649 1.209a5.384 5.384 0 0 0 2.402.602c.074.002.148-.003.221-.004a5.19 5.19 0 0 0 1.58-.295c.57-.2 1.098-.49 1.589-.853.38-.282.727-.604 1.048-.958.277-.307.53-.635.76-.983.285-.428.532-.88.745-1.353.27-.602.481-1.227.637-1.872a11.309 11.309 0 0 0 .298-1.965c.013-.189.02-.378.03-.568h-.006c.002-.08.006-.16.006-.24m-.455.143h.006c-.008.175-.014.349-.023.523a15.068 15.068 0 0 1-.081.862c-.03.238-.071.473-.118.707-.156.776-.39 1.523-.715 2.239a8.798 8.798 0 0 1-.87 1.514 7.82 7.82 0 0 1-.554.685c-.33.363-.691.687-1.088.967a5.344 5.344 0 0 1-1.772.827 4.78 4.78 0 0 1-1.385.145 4.904 4.904 0 0 1-1.299-.235 5.458 5.458 0 0 1-1.428-.714 6.501 6.501 0 0 1-.897-.754c-.378-.38-.711-.8-1.006-1.254a8.891 8.891 0 0 1-.602-1.09 10.102 10.102 0 0 1-.57-1.548c-.106-.381-.192-.767-.255-1.159-.031-.193-.054-.388-.08-.582a8.745 8.745 0 0 1-.055-.67c-.014-.28-.021-.56-.013-.84.004-.121.006-.242.013-.363a11.019 11.019 0 0 1 .266-1.93c.154-.673.368-1.323.652-1.948.173-.382.37-.75.592-1.103.245-.387.518-.75.823-1.087a6.64 6.64 0 0 1 1.101-.98 5.39 5.39 0 0 1 1.66-.798c.221-.062.447-.107.675-.137a4.822 4.822 0 0 1 2.145.206c.697.23 1.322.6 1.89 1.082.154.132.303.271.446.417a7.97 7.97 0 0 1 1.265 1.71c.302.54.545 1.106.739 1.697a10.735 10.735 0 0 1 .459 2.088c.026.225.049.45.06.676.007.142.015.284.019.426.003.14 0 .28 0 .421" fill="#111B30" mask="url(#d)"/><path d="M9.522 2.407l-.04.043-.926 1.148-.098.12a.438.438 0 0 0-.092.254c-.003.051.01.1.03.146.027.07.07.13.122.181.013.012.026.022.038.035.072.08.075.187.008.275a.193.193 0 0 1-.254.04c-.016-.01-.031-.023-.047-.034a.382.382 0 0 0-.468.02.81.81 0 0 0-.108.11L6.824 5.81l-.042.055c.016.006.027.012.038.015a.808.808 0 0 1 .464.313c.106.139.177.296.23.464.053.175.084.356.101.539.018.187.02.375.009.562-.024.372-.106.73-.266 1.065a1.73 1.73 0 0 1-.333.484c-.12.12-.257.213-.417.267a.892.892 0 0 1-.344.047h-.067c.029.108.058.213.084.318a5.948 5.948 0 0 1 .176 1.307 6.938 6.938 0 0 1-.015.66 6 6 0 0 1-.088.655c-.02.11-.045.218-.07.326-.026.106-.056.21-.084.319.014 0 .024.003.034.002.279-.025.514.078.72.265.148.134.26.298.353.476.13.253.214.522.267.802.056.29.066.58.05.874a2.313 2.313 0 0 1-.126.66 1.23 1.23 0 0 1-.202.368.832.832 0 0 1-.462.293c-.016.004-.03.01-.05.017.012.017.02.032.031.045a1289.883 1289.883 0 0 0 .884 1.09c.035.042.073.08.117.111.143.103.31.095.447.004l.041-.03a.197.197 0 0 1 .26.035c.064.078.06.2-.008.275l-.037.036a.533.533 0 0 0-.108.145.39.39 0 0 0 .025.403c.012.019.026.035.04.052l1.003 1.244.038.043c.019-.016.021-.036.028-.053a.96.96 0 0 1 .28-.384.911.911 0 0 1 .487-.204c.25-.027.484.026.706.14.194.1.358.241.506.402.173.188.322.395.46.61.153.238.303.479.456.718.098.152.204.3.32.439.074.088.153.17.243.24a.884.884 0 0 0 .312.17.522.522 0 0 0 .367-.02.472.472 0 0 0 .253-.262.439.439 0 0 0-.16-.535.396.396 0 0 0-.524.051l-.04.042a.227.227 0 0 1-.3.004.241.241 0 0 1-.058-.3.291.291 0 0 1 .041-.058.842.842 0 0 1 .536-.286.85.85 0 0 1 .732.255c.128.128.213.28.253.46a.902.902 0 0 1-.081.623.934.934 0 0 1-.682.515c-.23.044-.451 0-.662-.101a1.674 1.674 0 0 1-.495-.383 4.136 4.136 0 0 1-.436-.578c-.128-.199-.253-.399-.38-.598a5.577 5.577 0 0 0-.388-.55 1.905 1.905 0 0 0-.345-.338.952.952 0 0 0-.355-.167.578.578 0 0 0-.332.008.458.458 0 0 0-.303.342.388.388 0 0 0 .02.245.433.433 0 0 0 .334.28.387.387 0 0 0 .345-.11c.018-.016.033-.034.05-.05a.223.223 0 0 1 .24-.041.228.228 0 0 1 .146.19.225.225 0 0 1-.055.189.854.854 0 0 1-.586.305.853.853 0 0 1-.682-.243.995.995 0 0 1-.152-.192.972.972 0 0 0-.067-.095L8.17 19.39a.851.851 0 0 1-.192-.619l.01-.08c-.014-.005-.028-.01-.042-.012a.805.805 0 0 1-.517-.28c-.061-.07-.118-.143-.176-.215l-1.097-1.352a1.035 1.035 0 0 0-.084-.089.85.85 0 0 1-.272-.56.841.841 0 0 1 .215-.65.221.221 0 0 1 .243-.07c.168.05.203.246.128.359a.325.325 0 0 1-.027.036.38.38 0 0 0 .128.597.345.345 0 0 0 .373-.04.504.504 0 0 0 .149-.184c.054-.106.086-.218.108-.334a2.71 2.71 0 0 0 .042-.358 2.836 2.836 0 0 0-.143-1.076 1.886 1.886 0 0 0-.184-.401.98.98 0 0 0-.242-.275.539.539 0 0 0-.22-.098c-.212-.041-.436.145-.433.383a.351.351 0 0 0 .08.223l.03.034a.244.244 0 0 1-.016.327.226.226 0 0 1-.321.006.671.671 0 0 1-.154-.223.86.86 0 0 1 .083-.88.48.48 0 0 0 .055-.103 5.7 5.7 0 0 0 .372-2.17 5.622 5.622 0 0 0-.374-1.909.638.638 0 0 0-.069-.132.868.868 0 0 1 .025-1.008.645.645 0 0 1 .06-.068.226.226 0 0 1 .317-.002.24.24 0 0 1 .02.33c-.006.01-.013.017-.02.025a.363.363 0 0 0-.043.414c.07.127.177.2.32.206a.46.46 0 0 0 .248-.066.821.821 0 0 0 .257-.24c.083-.115.145-.241.195-.374.073-.197.12-.4.143-.61.014-.123.023-.247.019-.371a2.568 2.568 0 0 0-.096-.685.942.942 0 0 0-.128-.277.614.614 0 0 0-.065-.08.334.334 0 0 0-.432-.044.385.385 0 0 0-.163.432c.016.053.041.1.078.14a.238.238 0 0 1 .065.173.226.226 0 0 1-.128.21.22.22 0 0 1-.24-.019.264.264 0 0 1-.043-.04.811.811 0 0 1-.203-.428.865.865 0 0 1 .275-.79c.02-.02.04-.04.058-.061L7.394 4.47a.861.861 0 0 1 .468-.308c.02-.005.042-.008.063-.012l.063-.012c-.003-.027-.005-.05-.009-.073a.78.78 0 0 1 .071-.433.918.918 0 0 1 .124-.198L9.22 2.141l.333-.412a.802.802 0 0 0 .059-.086c.14-.23.336-.38.596-.429a.847.847 0 0 1 .805.267c.029.03.053.063.067.103a.242.242 0 0 1-.089.277.23.23 0 0 1-.283-.015l-.037-.037c-.221-.23-.576-.141-.694.154a.42.42 0 0 0 .065.431c.092.12.216.182.363.186a.868.868 0 0 0 .445-.114c.123-.067.23-.155.33-.255.144-.144.27-.306.387-.475.125-.18.246-.362.368-.543.128-.19.259-.378.407-.552.135-.16.283-.307.457-.424A1.22 1.22 0 0 1 13.46 0a.956.956 0 0 1 .956.77.904.904 0 0 1-.207.791.846.846 0 0 1-.558.309.841.841 0 0 1-.778-.312c-.109-.146-.03-.354.145-.385a.223.223 0 0 1 .195.059c.016.014.03.03.045.045a.402.402 0 0 0 .569-.001.45.45 0 0 0-.023-.674.474.474 0 0 0-.321-.121.743.743 0 0 0-.37.105c-.1.057-.19.13-.272.212a2.999 2.999 0 0 0-.347.418c-.13.186-.257.374-.384.562a6.92 6.92 0 0 1-.414.564 2.597 2.597 0 0 1-.429.417 1.467 1.467 0 0 1-.578.274c-.186.04-.37.043-.552-.016a.922.922 0 0 1-.585-.534l-.031-.076M19.885 20.416l.029-.031.76-.941.26-.323a.443.443 0 0 0 .091-.191.376.376 0 0 0-.025-.23.546.546 0 0 0-.125-.18.395.395 0 0 1-.048-.052c-.066-.092-.044-.258.094-.306a.182.182 0 0 1 .165.016c.016.01.031.023.047.033.14.098.307.099.447.003a.604.604 0 0 0 .13-.124l.273-.337.59-.729c.015-.018.033-.034.041-.06l-.05-.015a.807.807 0 0 1-.492-.334 1.333 1.333 0 0 1-.195-.424 2.532 2.532 0 0 1-.082-.482 3.524 3.524 0 0 1 .083-1.131c.048-.2.112-.394.2-.58.077-.163.17-.316.29-.45.14-.153.302-.266.502-.316a.816.816 0 0 1 .27-.025l.054.004c.005-.02-.001-.035-.006-.051a6.133 6.133 0 0 1-.244-2.037c.023-.49.104-.971.243-1.441l.016-.06c-.019 0-.033-.002-.048 0-.295.02-.542-.091-.752-.299a1.793 1.793 0 0 1-.378-.577 2.925 2.925 0 0 1-.192-.663 3.518 3.518 0 0 1-.045-.795c.011-.21.038-.417.097-.62.044-.153.105-.299.194-.431a.84.84 0 0 1 .413-.334c.04-.014.08-.023.123-.035-.008-.028-.027-.043-.041-.061l-.467-.579-.367-.452a1.296 1.296 0 0 0-.095-.106.413.413 0 0 0-.24-.122.391.391 0 0 0-.277.074l-.042.03a.192.192 0 0 1-.253-.046.213.213 0 0 1 .013-.27l.046-.045a.538.538 0 0 0 .088-.12.407.407 0 0 0-.04-.458l-.114-.14-.9-1.112-.045-.053-.028.064a.94.94 0 0 1-.77.584 1.25 1.25 0 0 1-.683-.132 1.833 1.833 0 0 1-.467-.336 3.63 3.63 0 0 1-.456-.543c-.145-.208-.285-.418-.428-.627a5.615 5.615 0 0 0-.327-.443 2.04 2.04 0 0 0-.286-.288.93.93 0 0 0-.335-.18.54.54 0 0 0-.313-.007.483.483 0 0 0-.347.374.451.451 0 0 0 .237.478.4.4 0 0 0 .475-.083c.016-.017.032-.034.05-.049a.23.23 0 0 1 .367.128.237.237 0 0 1-.053.226.857.857 0 0 1-.432.274c-.407.107-.785-.086-.982-.412A.905.905 0 0 1 14.967.9a.933.933 0 0 1 .164-.475.942.942 0 0 1 .607-.407c.13-.027.261-.022.392.002.233.043.434.154.617.305.155.128.287.278.41.436.13.165.247.339.364.513.135.203.268.408.415.604.113.15.234.293.375.417.108.096.226.176.36.227.103.039.208.061.317.06a.472.472 0 0 0 .209-.051.458.458 0 0 0 .259-.385.378.378 0 0 0-.049-.22c-.084-.159-.213-.246-.39-.246a.379.379 0 0 0-.246.094c-.026.022-.05.047-.075.07a.23.23 0 0 1-.37-.097.24.24 0 0 1 .045-.245.863.863 0 0 1 .986-.239c.18.075.32.2.425.37.024.038.05.075.078.11l1.362 1.686a.89.89 0 0 1 .155.261c.046.13.063.262.042.4l-.004.048.075.015a.8.8 0 0 1 .425.219c.037.035.071.074.104.114l1.23 1.517a.801.801 0 0 0 .071.076c.153.146.251.324.276.538a.843.843 0 0 1-.199.662.255.255 0 0 1-.154.096.236.236 0 0 1-.266-.204.242.242 0 0 1 .065-.204.351.351 0 0 0 .089-.178.358.358 0 0 0-.056-.274.373.373 0 0 0-.265-.174.334.334 0 0 0-.267.077.501.501 0 0 0-.118.145 1.17 1.17 0 0 0-.12.336 2.888 2.888 0 0 0-.051.808c.028.354.108.693.278 1.005.057.103.125.198.21.278a.585.585 0 0 0 .236.138.377.377 0 0 0 .475-.294.36.36 0 0 0-.07-.301c-.013-.015-.027-.03-.038-.045a.245.245 0 0 1 .029-.32.226.226 0 0 1 .312-.002.85.85 0 0 1 .103 1.062 1.15 1.15 0 0 0-.094.192 5.684 5.684 0 0 0 .011 4.042.373.373 0 0 0 .05.091c.105.14.165.3.171.478a.83.83 0 0 1-.226.62.228.228 0 0 1-.384-.071.241.241 0 0 1 .018-.226c.01-.016.023-.031.036-.046a.36.36 0 0 0 .054-.396.373.373 0 0 0-.3-.225.376.376 0 0 0-.215.042.68.68 0 0 0-.222.182 1.4 1.4 0 0 0-.198.319 2.627 2.627 0 0 0-.197.64c-.034.19-.051.381-.047.574.003.185.015.37.06.552.02.085.048.167.088.245a.499.499 0 0 0 .111.15c.116.101.249.131.39.072a.375.375 0 0 0 .242-.34.345.345 0 0 0-.082-.248c-.012-.015-.026-.029-.037-.044a.246.246 0 0 1 .027-.312.228.228 0 0 1 .308-.012.859.859 0 0 1-.036 1.245.587.587 0 0 0-.062.065l-1.238 1.528a.923.923 0 0 1-.354.28.717.717 0 0 1-.19.053c-.018.002-.036.007-.057.01 0 .019 0 .034.003.049a.813.813 0 0 1-.177.64c-.203.255-.41.507-.614.76l-.79.976c-.017.022-.032.046-.047.07a.87.87 0 0 1-.632.438c-.308.046-.57-.058-.786-.29-.099-.107-.086-.328.094-.391a.22.22 0 0 1 .227.043c.015.012.028.027.041.04.202.203.504.157.655-.087a.436.436 0 0 0 .06-.288.455.455 0 0 0-.358-.386.654.654 0 0 0-.338.022 1.064 1.064 0 0 0-.405.239 2.55 2.55 0 0 0-.354.401c-.158.214-.299.44-.44.665-.126.2-.25.4-.389.591a3.32 3.32 0 0 1-.287.35 1.67 1.67 0 0 1-.451.346c-.169.085-.346.13-.533.123a.957.957 0 0 1-.914-.79.899.899 0 0 1 .226-.786.828.828 0 0 1 .453-.275.847.847 0 0 1 .854.274.242.242 0 0 1-.085.39.222.222 0 0 1-.233-.037.27.27 0 0 1-.032-.032.403.403 0 0 0-.633.028.436.436 0 0 0-.005.544.484.484 0 0 0 .495.196.788.788 0 0 0 .35-.16c.119-.09.22-.2.313-.315a4.3 4.3 0 0 0 .279-.39l.34-.538c.139-.22.28-.436.444-.638.118-.144.244-.278.39-.393a1.39 1.39 0 0 1 .574-.28c.172-.036.344-.043.516.005a.922.922 0 0 1 .626.556l.023.053c.001.002.004.002.009.005" fill="#111B30" mask="url(#d)"/></g><path d="M92.765 55.914l.118-.062c.183-.09.376-.149.575-.191.22-.048.441-.075.665-.09.149-.01.297-.013.446-.013h2.438l.066.001c.096.002.175.09.173.182v5.676c0 .08-.068.16-.144.171a.409.409 0 0 1-.059.006h-2.67c-.207 0-.412.014-.617.043a2.762 2.762 0 0 0-.543.13 1.373 1.373 0 0 0-.33.167.194.194 0 0 1-.133.042.149.149 0 0 1-.078-.026 1.625 1.625 0 0 0-.594-.254 3.433 3.433 0 0 0-.44-.075 4.72 4.72 0 0 0-.54-.026h-2.587c-.03 0-.06-.001-.089-.008a.18.18 0 0 1-.14-.168v-.048-5.591-.043a.182.182 0 0 1 .165-.177c.018-.002.036-.002.053-.002h2.558c.222 0 .444.015.664.043.213.027.423.068.628.133.13.041.254.092.373.158l.042.022m3.953 5.29v-.09-4.929-.053c0-.011-.002-.022-.004-.037l-.074-.002h-2.108c-.177 0-.354.007-.53.025a3.343 3.343 0 0 0-.496.087c-.147.038-.29.088-.425.162-.018.01-.038.018-.054.04V61.414c0 .01 0 .02.013.028l.033-.013c.113-.048.229-.085.347-.114.302-.075.61-.109.92-.11h2.298l.08-.001m-7.91-5.107v5.017l.001.053c0 .011.003.022.006.037l.074.001h2.243c.223 0 .446.015.668.05.228.034.45.087.664.178.01.004.02.005.035.009v-.081-4.881-.042l-.003-.04c-.013-.008-.024-.017-.035-.022-.063-.03-.125-.063-.189-.09-.17-.07-.35-.11-.53-.14a4.015 4.015 0 0 0-.64-.052c-.746-.001-1.491 0-2.237 0l-.056.003M91.403 52.642l.058-.022a.412.412 0 0 1 .166-.034.13.13 0 0 0 .084-.029.665.665 0 0 1 .304-.12.589.589 0 0 1 .236.015c.128.036.202.127.236.253a.347.347 0 0 1-.09.34.65.65 0 0 0-.118.186c-.068.16-.11.326-.134.498-.018.13-.02.26-.02.392a.356.356 0 0 1-.015.123.339.339 0 0 1-.28.238.58.58 0 0 1-.09.006h-2.177a.702.702 0 0 1-.091-.006.341.341 0 0 1-.291-.3.985.985 0 0 1-.006-.099c-.002-.075 0-.15-.004-.224a1.92 1.92 0 0 0-.15-.64.56.56 0 0 0-.11-.17.37.37 0 0 1-.011-.498.302.302 0 0 1 .158-.1.63.63 0 0 1 .384.024.71.71 0 0 1 .166.09c.016.01.03.021.05.02.083-.003.16.02.239.056.006-.01.014-.02.018-.03a.596.596 0 0 1 .137-.233.403.403 0 0 1 .15-.105c.023-.008.035-.024.041-.048a.75.75 0 0 1 .064-.168.566.566 0 0 1 .105-.145.344.344 0 0 1 .48-.001.645.645 0 0 1 .166.293l.007.03a.047.047 0 0 0 .03.036c.037.013.07.032.102.056a.55.55 0 0 1 .183.252l.023.064m-.374.913c.02-.01.038-.018.055-.03a.185.185 0 0 0 .053-.228.163.163 0 0 0-.203-.084c-.117.045-.149.203-.059.293.016.016.033.03.047.041-.004.116-.049.192-.137.229-.09.037-.178.012-.228-.078a.364.364 0 0 1-.044-.17l.038-.01a.123.123 0 0 0 .088-.12.124.124 0 0 0-.088-.121c-.013-.005-.027-.008-.044-.013 0-.03-.002-.057 0-.083a.182.182 0 0 1 .138-.168.213.213 0 0 1 .162.018c.01.006.019.02.035.009a.303.303 0 0 0-.03-.13.214.214 0 0 0-.165-.126.249.249 0 0 0-.109.006c-.011.003-.023.004-.039.006v-.044a.88.88 0 0 0-.017-.202.467.467 0 0 0-.065-.169c-.008-.012-.02-.02-.031-.032a.31.31 0 0 0-.071.124.792.792 0 0 0-.04.273c0 .016.008.035-.01.052-.077-.025-.156-.028-.227.023-.074.052-.098.131-.103.228.023-.012.039-.022.056-.028.079-.029.154-.023.218.036.062.057.067.132.053.21-.014.004-.025.005-.035.009a.127.127 0 0 0-.09.125c.002.058.038.102.097.119.01.002.019.006.03.01a.353.353 0 0 1-.05.176.167.167 0 0 1-.106.081.194.194 0 0 1-.18-.05.225.225 0 0 1-.07-.194c.01-.009.023-.018.034-.029a.179.179 0 0 0 .05-.19.164.164 0 0 0-.16-.12.17.17 0 0 0-.16.131.179.179 0 0 0 .073.194c.014.01.03.017.047.026a.353.353 0 0 1-.05.213.172.172 0 0 1-.147.083c-.093.002-.154-.049-.192-.132a.359.359 0 0 1-.012-.265.17.17 0 0 1 .122-.12l.048-.013c-.048-.146-.171-.178-.313-.084-.002-.002-.005-.002-.006-.004-.008-.013-.015-.027-.024-.04a.354.354 0 0 0-.329-.173c-.012 0-.026 0-.03.02.09.087.146.197.194.314.104.254.16.52.178.794.006.092.006.185.009.277 0 .018.002.035.004.051.072.012 1.864.017 2.336.007.014 0 .029-.002.045-.004.008-.034.005-.065.005-.096a2.766 2.766 0 0 1 .05-.56c.039-.195.094-.384.182-.561a.829.829 0 0 1 .115-.18l.046-.048c-.038-.015-.044-.017-.077-.015a.378.378 0 0 0-.154.044.412.412 0 0 0-.164.175c-.14-.095-.29-.053-.307.084l.011.005.02.004c.076.019.122.072.14.15a.386.386 0 0 1-.005.201.267.267 0 0 1-.072.118.184.184 0 0 1-.28-.027.362.362 0 0 1-.056-.218M92.005 64.035c.02-.02.021-.046.029-.069a.715.715 0 0 1 .158-.28.48.48 0 0 1 .07-.06c.024-.018.05-.03.081-.046l.017-.066a.846.846 0 0 1 .14-.321c.102-.137.227-.175.371-.126.05.017.092.051.13.095.08.093.13.21.164.337l.02.08c.174.079.272.243.328.455.017-.006.03-.008.043-.015.059-.03.12-.046.183-.047.03 0 .055-.012.08-.032a.64.64 0 0 1 .315-.146.496.496 0 0 1 .248.026c.055.02.102.06.14.114a.516.516 0 0 1-.005.583l-.009.01a.573.573 0 0 0-.123.229c-.07.2-.112.41-.134.627-.015.147-.015.294-.015.442a.497.497 0 0 1-.042.208c-.056.123-.141.197-.256.215a.548.548 0 0 1-.085.007H91.67a.349.349 0 0 1-.162-.029c-.135-.068-.21-.193-.22-.371-.005-.082 0-.165-.002-.247a2.794 2.794 0 0 0-.16-.894.601.601 0 0 0-.098-.178.492.492 0 0 1-.108-.368c.017-.186.13-.333.28-.366a.569.569 0 0 1 .495.128.172.172 0 0 0 .106.043.378.378 0 0 1 .166.045l.038.017m-.702 1.678c.032.01.058.007.084.007H93.623c.021 0 .043.006.066-.01l.003-.058.005-.19c.003-.153.024-.303.056-.452.038-.177.09-.35.17-.511a.729.729 0 0 1 .151-.22c.004-.003.005-.01.008-.018a.274.274 0 0 0-.184.016.354.354 0 0 0-.201.197c-.032-.016-.06-.035-.089-.045a.165.165 0 0 0-.095-.007.17.17 0 0 0-.09.048.138.138 0 0 0-.043.087l.021.006.02.005c.068.02.11.066.129.137a.397.397 0 0 1-.003.221.266.266 0 0 1-.051.094.187.187 0 0 1-.29-.002.321.321 0 0 1-.06-.228c.02-.01.038-.019.054-.03a.172.172 0 0 0 .072-.151.179.179 0 0 0-.13-.167.164.164 0 0 0-.186.088.187.187 0 0 0 .032.213c.013.013.029.025.044.039a.228.228 0 0 1-.08.199c-.07.063-.178.058-.228.018a.271.271 0 0 1-.09-.233c.09-.035.118-.068.116-.138-.001-.069-.033-.102-.125-.13a.219.219 0 0 1 .001-.119.179.179 0 0 1 .135-.132.21.21 0 0 1 .156.018c.01.005.02.02.038.006-.003-.02-.005-.042-.01-.063-.026-.127-.123-.203-.244-.192-.019.002-.038.006-.057.01-.01.002-.02.007-.028-.002l-.01-.17a.576.576 0 0 0-.052-.196.17.17 0 0 0-.055-.077c-.01.012-.02.02-.027.031a.435.435 0 0 0-.06.15.882.882 0 0 0-.023.202c0 .021.006.045-.009.064-.114-.022-.17-.015-.23.028a.245.245 0 0 0-.095.225c.088-.052.176-.063.26.003.068.054.079.13.066.217l-.038.008a.122.122 0 0 0-.092.124c0 .057.031.101.086.12l.037.014a.309.309 0 0 1-.062.198.152.152 0 0 1-.09.06c-.141.03-.266-.091-.252-.245l.045-.037a.184.184 0 0 0 .03-.219.165.165 0 0 0-.202-.076.167.167 0 0 0-.11.147.174.174 0 0 0 .077.169c.016.011.033.02.048.029a.371.371 0 0 1-.037.187.183.183 0 0 1-.116.1c-.094.025-.182-.015-.23-.105a.355.355 0 0 1-.022-.277.179.179 0 0 1 .135-.132l.036-.01c-.015-.064-.05-.105-.103-.125-.077-.029-.147-.009-.21.045-.013-.022-.023-.042-.036-.06a.353.353 0 0 0-.322-.163c-.011 0-.022.007-.035.012.031.038.063.07.086.107.037.06.074.123.102.189.13.303.19.624.197.957.002.063 0 .126 0 .195M94.123 52.643l.025-.07a.533.533 0 0 1 .275-.3c.023-.01.036-.023.042-.049a.72.72 0 0 1 .07-.179.443.443 0 0 1 .188-.197.343.343 0 0 1 .386.06.62.62 0 0 1 .162.275l.022.073c.035.018.067.032.096.05.1.064.167.157.21.268.008.021.008.045.03.064.015-.005.032-.01.048-.017a.427.427 0 0 1 .173-.035.12.12 0 0 0 .078-.026.657.657 0 0 1 .304-.122.577.577 0 0 1 .253.019.292.292 0 0 1 .12.071.369.369 0 0 1 .003.53.518.518 0 0 0-.1.147 1.855 1.855 0 0 0-.142.495c-.022.145-.025.29-.023.436a.336.336 0 0 1-.056.194.322.322 0 0 1-.24.153.704.704 0 0 1-.085.005h-2.183a.419.419 0 0 1-.144-.019.338.338 0 0 1-.236-.29.698.698 0 0 1-.005-.087c-.002-.077 0-.154-.004-.23a1.933 1.933 0 0 0-.18-.708.332.332 0 0 0-.065-.09.373.373 0 0 1-.115-.227.354.354 0 0 1 .275-.392.645.645 0 0 1 .504.11.15.15 0 0 0 .096.031.412.412 0 0 1 .166.035l.052.022m-.047.373c.014-.012.029-.021.04-.033a.182.182 0 0 0 .059-.146.176.176 0 0 0-.14-.165.167.167 0 0 0-.186.12.18.18 0 0 0 .072.207c.014.01.03.016.044.023a.367.367 0 0 1-.047.21.175.175 0 0 1-.139.087.182.182 0 0 1-.178-.088.349.349 0 0 1-.028-.33.158.158 0 0 1 .103-.096 1.88 1.88 0 0 0 .053-.018.15.15 0 0 0-.097-.121c-.076-.03-.148-.014-.213.043a.396.396 0 0 0-.165-.18c-.08-.044-.17-.055-.227-.029.032.04.065.078.094.12.047.067.082.143.113.22.098.252.154.513.17.784.005.09.005.181.008.271 0 .018.003.035.005.056l.08.002h2.271c.012-.001.024-.005.04-.009v-.09a2.754 2.754 0 0 1 .033-.474c.034-.208.086-.41.172-.602a.826.826 0 0 1 .174-.268c.002-.002.002-.007.004-.014-.055-.022-.11-.009-.163.008a.362.362 0 0 0-.223.2c-.083-.05-.124-.06-.184-.048-.072.015-.114.06-.126.135l.031.008c.078.019.12.073.139.152a.4.4 0 0 1 .007.142.3.3 0 0 1-.063.154c-.072.09-.207.1-.28.018-.063-.068-.076-.154-.074-.242.022-.012.04-.02.056-.031a.183.183 0 0 0 .065-.192.175.175 0 0 0-.137-.128.166.166 0 0 0-.175.1.185.185 0 0 0 .04.21l.041.034c-.003.104-.04.185-.135.228-.09.04-.178.01-.23-.077a.385.385 0 0 1-.043-.134c-.002-.012 0-.025 0-.037.088-.024.124-.061.125-.127.002-.071-.032-.108-.128-.138-.013-.08-.005-.155.058-.21.083-.07.174-.061.265-.008a.248.248 0 0 0-.062-.194c-.077-.084-.171-.08-.273-.054v-.06a.794.794 0 0 0-.03-.24.407.407 0 0 0-.054-.123c-.007-.01-.018-.018-.028-.028a.3.3 0 0 0-.081.147.807.807 0 0 0-.032.248c0 .017 0 .034-.002.056-.086-.024-.166-.03-.24.025-.071.054-.097.132-.1.222h.01l.03-.015a.214.214 0 0 1 .169-.014c.06.019.1.061.119.123.012.04.016.084.002.128-.015.004-.03.007-.044.012a.124.124 0 0 0-.084.123c.003.056.038.1.092.117l.037.01a.344.344 0 0 1-.056.188.158.158 0 0 1-.105.072.19.19 0 0 1-.153-.034c-.067-.05-.093-.121-.096-.206" fill="#111B30"/><path d="M97.97 56.099c.074-.009.272-.007.323 0l.004.005a.012.012 0 0 1 .002.006l.002 6.35c0 .01 0 .022-.002.032 0 .004-.003.008-.006.014-.006.002-.015.005-.023.005h-5.24c-.009-.022.01-.024.02-.03.139-.078.287-.14.442-.184.163-.047.33-.076.498-.094.183-.02.365-.025.548-.025h3.421c.003-.015.008-.027.009-.039v-.07-5.883l.001-.087M88.054 62.185H91.1c.154 0 .308.001.462.015.23.021.458.063.676.154.08.034.159.075.235.122.01.006.017.014.027.022-.005.005-.008.01-.01.01-.125.007-4.679.003-4.73-.004-.002-.011-.005-.023-.005-.036v-.051-6.233c0-.028-.003-.056.002-.082.046-.01.207-.012.29-.004.001.01.005.023.005.035v5.96l.002.092M94.606 57.69a.596.596 0 0 1-.212-.004c-.005-.064-.002-.13-.002-.197v-.208-.196c-.008-.002-.01-.004-.012-.003a.006.006 0 0 0-.005.003l-.29.492c-.014-.018-.025-.032-.035-.049l-.23-.382c-.013-.023-.025-.05-.049-.071-.007.048-.003.089-.004.13v.485a.89.89 0 0 1-.206.003c-.002-.012-.006-.02-.006-.027V56.66c0-.007.003-.015.005-.023.007-.003.012-.007.018-.007h.188c.01.015.022.031.032.048l.24.403.039.06.01-.002a271 271 0 0 0 .3-.497c0-.002.002-.004.009-.011.065-.003.134-.002.206 0 .003.016.007.028.007.042v.981l-.003.037M93.776 59.743c-.014.078-.007.144-.008.209V60.359c-.037.021-.072.01-.106.012-.033.002-.066 0-.1 0-.003-.02-.007-.032-.007-.045v-.972l.003-.044c.071-.014.14-.003.212-.008.106.171.204.348.311.52.03-.031.047-.07.067-.104.021-.034.04-.07.062-.104l.057-.097.062-.104.064-.109c.068 0 .137-.004.21.003.001.026.004.047.004.068.005.526.002.922-.008.99-.006.002-.014.005-.022.005h-.17c-.016-.022-.012-.045-.012-.066v-.545c-.018-.008-.023.007-.029.017l-.239.403-.045.074c-.056-.087-.104-.173-.154-.257-.049-.081-.096-.165-.152-.253" fill="#111B30"/><path d="M95.616 59.57c-.024.015-.051.009-.077.009h-.567l-.078.003c-.015.033-.01.062-.005.097.019.002.036.006.054.006h.37c.026 0 .052.002.076.004a.782.782 0 0 1 .002.262c-.052.008-.107.003-.162.004h-.33c-.027.046-.01.09-.014.127.026.024.05.016.073.016h.693c.02.049.01.093.012.137.001.04 0 .082-.001.124-.031.018-.06.012-.088.012h-.899c-.018 0-.036-.002-.058-.004-.003-.017-.007-.032-.007-.048v-.957c0-.016.002-.032.004-.052.014-.003.026-.007.039-.007h.93l.03.003c.016.06.017.19.003.264M95.538 57.27v-.628c.021-.021.042-.01.063-.012h.06l.003.045v.972l-.002.044c-.021.01-.042.005-.063.006h-.06l-.134-.32-.132-.319c-.011.016-.009.034-.009.049v.498l-.001.086a.319.319 0 0 1-.121.001 36.503 36.503 0 0 1-.003-1.049c.024-.017.068-.02.125-.008l.265.632c0 .002.002.001.009.003M95.662 59.232a.513.513 0 0 1-.221-.04.474.474 0 0 1-.302-.505.458.458 0 0 1 .256-.384.557.557 0 0 1 .536-.003.448.448 0 0 1 .247.318c.042.2-.014.392-.168.505a.536.536 0 0 1-.348.109m-.244 0c.045-.003.103-.027.156-.103.101-.148.132-.54.014-.763-.096-.181-.284-.177-.38.008a.894.894 0 0 0-.063.494c.018.146.06.239.114.297a.195.195 0 0 0 .16.067M96.297 59.304l.413 1.026c.004.009.006.02.009.03a.687.687 0 0 1-.237.004 11.997 11.997 0 0 1-.043-.1l-.04-.095h-.415c-.036.06-.053.133-.084.194a.63.63 0 0 1-.236-.004l.008-.03.411-1.022c.071-.007.139-.004.214-.003m-.356.095c-.014.006-.025.008-.028.014-.045.08-.089.16-.132.242-.011.021-.018.044-.031.076.123.01.235.016.356-.002-.009-.024-.011-.04-.019-.055l-.146-.275M96.486 57.698l-.085-.205a3.132 3.132 0 0 0-.416-.002l-.085.206h-.236c.003-.017.004-.03.008-.041l.405-1 .013-.024c.066-.007.133-.002.204-.003.141.343.278.687.418 1.029.004.009.005.02.007.03-.006.004-.01.01-.013.01h-.22m-.566-.983l-.155.297c-.008.016-.007.037-.011.063.062 0 .116.002.17 0 .054-.002.111.008.177-.012-.056-.117-.103-.226-.18-.348M93.956 58.764c-.008-.046-.003-.088-.004-.131v-.13c0-.042.002-.085-.002-.13-.067-.008-.131-.002-.195-.004-.063-.001-.127.003-.19-.002a.23.23 0 0 1-.003-.128l.006-.004a1830.746 1830.746 0 0 1 .99-.003l.036.002c.017.027.02.065.01.13-.016.002-.032.005-.048.005h-.259l-.071.002c-.019.014-.012.029-.013.042v.304c0 .015.004.03-.006.045a1.64 1.64 0 0 1-.25.002M95.083 58.767c-.146 0-.278.003-.414-.002-.004-.009-.01-.015-.01-.022a3.09 3.09 0 0 1 .011-.507c.133-.007.268-.002.41-.003.004.012.012.021.012.03v.471c0 .01-.004.019-.009.033M95.085 57.69c-.133.011-.327.01-.42-.002-.003-.007-.01-.015-.01-.022V56.66c0-.008.007-.015.01-.022a2.56 2.56 0 0 1 .415-.003c.004.011.012.024.012.037v.981c0 .01-.004.022-.007.037M96.195 58.293h.505c.021.085.024.21.01.396-.08.032-.166.01-.25.014-.085.003-.17.006-.26-.004-.013-.137-.007-.265-.005-.406M91.963 57.696c-.068 0-.133.003-.202-.002-.008-.107-.003-.209-.004-.311-.001-.099.001-.198-.002-.31-.05.055-.077.117-.11.17-.034.054-.065.11-.097.163l-.102.171c-.043-.051-.072-.112-.105-.168l-.097-.163-.097-.167c-.02.004-.016.02-.016.033v.492l-.002.086c-.07.014-.137.004-.207.007-.007-.124-.003-.24-.003-.356v-.35-.35c.037-.02.072-.01.106-.012.035-.002.07 0 .107 0l.033.05.239.403c.012.022.026.042.042.068l.308-.52c.07 0 .14-.006.212.004l.003.052c.007.341.003.922-.006 1.01M90.918 58.664l.067-.1.035.022c.068.045.14.058.218.05a.191.191 0 0 0 .042-.01.079.079 0 0 0 .025-.015c.015-.013.013-.033-.005-.04a.196.196 0 0 0-.049-.012c-.036-.005-.073-.006-.11-.01a1.422 1.422 0 0 1-.093-.015.146.146 0 0 1-.03-.01c-.071-.032-.098-.117-.061-.192a.152.152 0 0 1 .059-.062.237.237 0 0 1 .081-.03.437.437 0 0 1 .196.009c.05.013.096.04.136.075a.312.312 0 0 1-.072.095l-.028-.013a.326.326 0 0 0-.195-.04.202.202 0 0 0-.043.009c-.007.002-.013.01-.023.016.008.006.012.011.017.013.017.004.034.009.052.01l.147.015a.259.259 0 0 1 .08.024c.109.05.097.196.03.255a.183.183 0 0 1-.062.038.49.49 0 0 1-.287-.002.327.327 0 0 1-.127-.08M88.814 57.693c-.003-.016-.005-.027-.005-.037v-.994c0-.008.003-.015.006-.027.013-.003.026-.006.04-.006h.525c.075 0 .15.016.218.051.17.088.254.247.265.463.012.264-.132.466-.33.532a.416.416 0 0 1-.125.021c-.187.003-.374.001-.56.001-.01 0-.019-.002-.034-.004m.002-.54c.006.003.011.008.018.008.102.001.206.003.309 0a.164.164 0 0 0 .126-.062.31.31 0 0 0 .059-.27c-.02-.105-.074-.165-.153-.188a.376.376 0 0 0-.092-.012c-.076-.002-.153 0-.23 0-.012 0-.025.004-.037.006-.01.073-.01.45 0 .519M89.857 58.764c-.083.006-.163.001-.246.003l-.266-.161c-.088-.054-.174-.109-.273-.164-.004.012-.008.02-.008.027v.246l-.001.046c-.044.01-.086.005-.127.006h-.12c-.003-.01-.007-.018-.007-.026v-.484l.003-.02.024-.004h.23l.524.32c.025-.007.017-.018.017-.027v-.246c0-.014.003-.027.004-.043.082-.008.162-.002.245-.004.003.012.007.021.007.03v.472c0 .01-.004.018-.006.03" fill="#111B30"/><path d="M90.388 57.698a.597.597 0 0 1-.27-.072.493.493 0 0 1-.148-.127c-.143-.18-.151-.51.03-.701a.521.521 0 0 1 .413-.17.53.53 0 0 1 .404.214c.142.186.14.52-.044.699a.504.504 0 0 1-.255.14c-.043.009-.087.011-.13.017m-.262-.536c.016 0 .032.002.047 0a.238.238 0 0 0 .143-.066c.06-.06.084-.141.072-.24a.24.24 0 0 0-.098-.175.272.272 0 0 0-.24-.042.24.24 0 0 0-.108.06c-.119.114-.097.341.025.42.05.032.103.047.16.043M91.17 59.303l.001.09v.486c0 .03.004.059.007.088a.114.114 0 0 0 .062.094.3.3 0 0 0 .075.031c.088.02.175.02.263 0 .01-.002.018-.006.028-.01.085-.03.11-.066.11-.165v-.526c0-.027-.005-.054.011-.083.076-.01.154-.003.235-.005.004.018.01.033.01.048v.639a.326.326 0 0 1-.114.251.456.456 0 0 1-.177.097.827.827 0 0 1-.486-.005.434.434 0 0 1-.174-.103.317.317 0 0 1-.102-.232c-.002-.222 0-.443 0-.664 0-.006.002-.01.004-.021.011-.003.025-.01.039-.01h.207M89.863 58.236c.053-.005.181-.005.239 0l.277.34c.025 0 .027-.012.033-.02l.216-.265.045-.054c.056-.006.19-.006.245 0-.003.005-.004.01-.008.015-.14.172-.282.344-.424.515h-.197l-.424-.519c-.003-.003-.001-.008-.002-.012M90.393 59.308c.048-.009.094-.005.14-.002.01.026.007.055.007.082v.615c0 .03-.004.061.007.092.04.01.08.003.12.004h.243c.012.047.007.091.007.135 0 .043.004.088-.004.13a3.76 3.76 0 0 1-.52-.001l-.002-.046v-.957l.002-.052" fill="#111B30"/><path d="M90.38 60.097a.84.84 0 0 1 0 .266c-.015.002-.032.005-.048.005-.31.008-.905.004-.99-.008-.001-.011-.006-.024-.006-.037v-.969c0-.013.004-.027.005-.04a.993.993 0 0 1 .278-.005c.021.024.013.053.013.08v.688c.025.025.05.02.072.02H90.38M89.29 60.364c-.156.012-.337.01-.42-.004-.02-.068-.028-.716-.014-1.003.001-.015.007-.031.012-.052.14-.005.275-.002.417-.002.004.022.01.038.01.054v.955c0 .016-.003.032-.005.052M92.03 56.628h.395c.036.021.024.048.024.072.002.203.001.406.001.61v.375c-.074.02-.145.01-.214.011-.065.002-.131 0-.203 0-.004-.018-.011-.031-.011-.044v-.976c0-.014.004-.027.008-.048M91.986 58.701a1.643 1.643 0 0 1-.002-.4c.082-.017.167-.007.251-.008.084-.001.17-.004.252.004.017.109.017.28.002.402-.054.017-.113.006-.17.008-.054.002-.109.001-.164 0-.056-.001-.114.007-.169-.006M160 58.763c0-3.485-2.794-4.275-5.53-4.275-1.095 0-2.19.02-3.284.04v.345c1.226.182 1.434.466 1.434 1.783v4.295c0 1.175-.321 1.701-1.472 1.701-1.208 0-3.473-2.916-4.19-3.829 1-.303 1.944-1.073 1.944-2.288 0-1.803-2.02-2.047-3.284-2.047-1 0-2.001.04-3.02.061v.365c.226 0 .604-.02.773.141.265.244.265 1.074.265 1.398 0 2.189-.057 4.396-.076 6.584h2.945v-.364c-1.152-.162-1.548-.121-1.548-1.438 0-2.087.038-4.194.057-6.28h.018c1.076-.021 2.36.486 2.36 1.863 0 1.013-1.246 1.904-2.114 1.904 1.076 1.5 1.755 2.654 3.265 3.647.887.587 1.284.648 2.303.668.094 0 .245.02.34 0h.037c.02 0 .038.02.057 0h4.265c1.227 0 2.473-.566 3.323-1.498A4.04 4.04 0 0 0 160 58.763m-1.582.133c0 2.035-1.147 3.616-3.283 3.616-1.048 0-1.463-.238-1.463-1.285v-6.125c.198-.059.415-.079.593-.079 2.373 0 4.153 1.403 4.153 3.873M141.543 58.55c0-2.842-1.873-4.597-4.483-4.597-2.534 0-4.482 1.734-4.482 4.517 0 2.802 1.91 4.577 4.464 4.577 2.496 0 4.501-1.734 4.501-4.497m-1.582.039c0 1.912-.588 3.923-2.768 3.923-1.023 0-1.857-.592-2.407-1.44-.474-.768-.626-1.793-.626-2.7 0-1.893.683-3.884 2.806-3.884 1.042 0 1.839.572 2.388 1.479.455.75.607 1.754.607 2.622M132.05 56.294l-.133-1.806h-6.252v.304c1.166.153 1.415.305 1.415 1.464v4.335c0 1.502-1.262 1.56-2.467 1.56-1.052 0-1.683-.78-2.199-1.579l-1.682-2.623c.306-.438.592-.894.879-1.35.727-1.084 1.243-1.654 2.62-1.75v-.36h-3.423v.36c.306.039.86.077.86.495 0 .475-.917 1.768-1.204 2.205l-1.989-3.06h-2.695v.36c1.166.02 1.893.837 2.466 1.75l1.281 2.11-1.185 1.692c-.765 1.103-1.186 1.673-2.639 1.75v.36h3.556l.02-.285c-.306-.095-.9-.247-.9-.646 0-.475 1.129-1.996 1.473-2.415l2.16 3.347h7.955v-.305c-1.358-.228-1.53-.17-1.53-1.559V58.69c1.281 0 1.95-.266 2.027 1.255h.287v-1.977c-.478.076-.976.057-1.473.057h-.841v-3.061h.727c1.09 0 2.37-.057 2.543 1.311l.344.02M115.176 58.56c0-2.836-1.873-4.607-4.483-4.607-2.534 0-4.482 1.75-4.482 4.527 0 2.776 1.91 4.567 4.482 4.567 2.497 0 4.483-1.75 4.483-4.487m-1.582.038c0 1.908-.569 3.914-2.768 3.914-1.004 0-1.839-.59-2.388-1.456-.493-.767-.645-1.79-.645-2.694 0-1.868.683-3.874 2.825-3.874 1.023 0 1.82.59 2.37 1.475.454.767.606 1.75.606 2.635" fill="#111B30"/></g></svg>